#!OML:ASF H:\BabyWalks\Project 1\Capture day 1\Session 1\baby.ASF
:FULLY-SPECIFIED
:DEGREES
630
root -7.14544 17.5345 -0.425082 -1.1814 92.5608 -0.674738
lowerback 22.8143 -1.37785 1.74623
upperback 5.93933 -0.760854 2.11375
thorax -6.20628 -0.186299 1.4805
lowerneck -3.98557 -0.656072 3.98256
upperneck 1.01488 -0.872317 -7.5997
head 0.966675 -0.505188 -3.1625
rclavicle 6.95746e-015 1.19271e-014
rhumerus -45.9233 13.0739 -80.2516
rradius 42.6288
rwrist 4.27903
rhand -21.8688 -20.4104
rfingers 7.12502
rthumb 4.53547 -50.3419
lclavicle 6.95746e-015 1.19271e-014
lhumerus -41.0216 -13.0887 79.6079
lradius 51.2601
lwrist -8.09276
lhand -1.95897 2.61868
lfingers 7.12502
lthumb 23.7127 31.1759
rfemur -21.5426 3.99682 19.7181
rtibia 34.3441
rfoot -11.3593 -1.53895
rtoes 5.30425
lfemur -25.6235 7.94412 -14.2554
ltibia 50.0491
lfoot -19.7528 -21.3693
ltoes -6.70173
631
root -7.08634 17.5552 -0.422155 -3.95648 92.2938 -3.57054
lowerback 22.8013 -1.2733 1.65224
upperback 5.91372 -0.65611 2.05927
thorax -6.22838 -0.137151 1.44649
lowerneck -4.47228 -0.494075 4.18809
upperneck 1.89528 -0.630683 -7.69021
head 1.35327 -0.404631 -3.24471
rclavicle -2.38542e-015 2.06736e-014
rhumerus -45.6609 13.5912 -80.5636
rradius 44.0657
rwrist 3.05476
rhand -22.5339 -20.3129
rfingers 7.12502
rthumb 3.89324 -50.2571
lclavicle -2.38542e-015 2.06736e-014
lhumerus -41.7059 -13.0563 79.9307
lradius 50.1062
lwrist -8.46461
lhand -0.803752 2.66974
lfingers 7.12502
lthumb 24.8203 31.0789
rfemur -21.3347 4.27966 19.6254
rtibia 34.0772
rfoot -11.448 -1.60613
rtoes 5.46821
lfemur -25.6034 7.87395 -14.6304
ltibia 48.4573
lfoot -20.3108 -20.6634
ltoes -6.48453
632
root -7.02667 17.5743 -0.419487 -7.33026 92.0079 -7.07725
lowerback 22.7513 -1.16929 1.55973
upperback 5.89666 -0.554927 1.9864
thorax -6.22244 -0.0898865 1.39198
lowerneck -4.99079 -0.318506 4.39436
upperneck 2.85451 -0.370507 -7.74067
head 1.77805 -0.294332 -3.31584
rclavicle 6.16232e-015 -7.15625e-015
rhumerus -45.4417 14.1084 -80.9007
rradius 45.6333
rwrist 1.7072
rhand -22.7715 -20.2599
rfingers 7.12502
rthumb 3.66372 -50.2082
lclavicle 6.16232e-015 -7.15625e-015
lhumerus -42.4001 -13.0729 80.2352
lradius 49.0539
lwrist -8.87423
lhand 0.22067 2.7332
lfingers 7.12502
lthumb 25.8017 31.0034
rfemur -21.1653 4.60795 19.5395
rtibia 33.8677
rfoot -11.5751 -1.72504
rtoes 5.58813
lfemur -25.5365 7.77106 -14.9732
ltibia 46.8309
lfoot -20.8869 -19.9455
ltoes -6.31107
633
root -6.96653 17.5914 -0.417317 -11.6899 91.7089 -11.5813
lowerback 22.6625 -1.06517 1.47507
upperback 5.88629 -0.454777 1.89617
thorax -6.18949 -0.0433596 1.314
lowerneck -5.51852 -0.137266 4.59908
upperneck 3.87875 -0.103341 -7.74995
head 2.23323 -0.178612 -3.37469
rclavicle 1.41137e-014 6.36111e-015
rhumerus -45.2662 14.6127 -81.2558
rradius 47.3194
rwrist 0.25172
rhand -22.6408 -20.2684
rfingers 7.12502
rthumb 3.79001 -50.2145
lclavicle 1.41137e-014 6.36111e-015
lhumerus -43.1023 -13.1449 80.5303
lradius 48.0983
lwrist -9.30622
lhand 1.06272 2.78342
lfingers 7.12502
lthumb 26.6079 30.9339
rfemur -21.0235 4.9677 19.4612
rtibia 33.6922
rfoot -11.7288 -1.88888
rtoes 5.66944
lfemur -25.4229 7.62948 -15.2797
ltibia 45.1828
lfoot -21.4537 -19.214
ltoes -6.21065
634
root -6.90558 17.5987 -0.416338 -17.8083 91.3992 -17.8509
lowerback 22.5435 -0.961537 1.39854
upperback 5.88255 -0.355389 1.79229
thorax -6.13375 0.00268203 1.21669
lowerneck -6.03777 0.0499867 4.79631
upperneck 4.94444 0.170371 -7.72001
head 2.709 -0.0564472 -3.41972
rclavicle -4.17448e-015 -2.54444e-014
rhumerus -45.1274 15.1051 -81.6216
rradius 49.0997
rwrist -1.26032
rhand -22.2148 -20.3381
rfingers 7.12502
rthumb 4.20135 -50.2764
lclavicle -4.17448e-015 -2.54444e-014
lhumerus -43.8101 -13.2687 80.8266
lradius 47.2349
lwrist -9.72611
lhand 1.68219 2.81097
lfingers 7.12502
lthumb 27.2006 30.8701
rfemur -20.9277 5.35235 19.388
rtibia 33.5779
rfoot -11.9139 -2.08543
rtoes 5.70311
lfemur -25.2859 7.44643 -15.5436
ltibia 43.5668
lfoot -22.0017 -18.4648
ltoes -6.1528
635
root -6.84548 17.6106 -0.416197 -27.3858 91.0908 -27.5815
lowerback 22.4032 -0.85803 1.33326
upperback 5.88419 -0.254874 1.67663
thorax -6.0612 0.0492192 1.10014
lowerneck -6.52503 0.235912 4.98798
upperneck 6.02619 0.440093 -7.65879
head 3.19253 0.0679955 -3.45312
rclavicle 2.98177e-015 3.97569e-015
rhumerus -45.0168 15.5726 -81.9859
rradius 50.9538
rwrist -2.7861
rhand -21.5784 -20.4518
rfingers 7.12502
rthumb 4.81592 -50.377
lclavicle 2.98177e-015 3.97569e-015
lhumerus -44.5171 -13.4398 81.1307
lradius 46.4555
lwrist -10.0974
lhand 2.07058 2.80057
lfingers 7.12502
lthumb 27.5721 30.801
rfemur -20.8538 5.74751 19.3209
rtibia 33.5047
rfoot -12.1297 -2.29199
rtoes 5.68537
lfemur -25.0898 7.2148 -15.7666
ltibia 41.9765
lfoot -22.5248 -17.6835
ltoes -6.12909
636
root -6.78595 17.6192 -0.417574 -44.2464 90.8148 -44.5907
lowerback 22.2553 -0.75723 1.27277
upperback 5.89019 -0.156826 1.5554
thorax -5.97967 0.0946943 0.976016
lowerneck -6.92655 0.418774 5.12476
upperneck 7.35878 0.742348 -7.8237
head 3.36503 0.177745 -3.18134
rclavicle -3.37934e-015 -1.51076e-014
rhumerus -44.9276 16.0304 -82.3458
rradius 52.8387
rwrist -4.25019
rhand -20.8143 -20.571
rfingers 7.12502
rthumb 5.55362 -50.4783
lclavicle -3.37934e-015 -1.51076e-014
lhumerus -45.2216 -13.6326 81.4458
lradius 45.7577
lwrist -10.3946
lhand 2.2422 2.75267
lfingers 7.12502
lthumb 27.7362 30.7268
rfemur -20.8145 6.13402 19.2586
rtibia 33.4938
rfoot -12.3764 -2.47991
rtoes 5.62
lfemur -24.8561 6.92892 -15.9464
ltibia 40.4588
lfoot -23.0117 -16.8656
ltoes -6.13463
